<svg width="8094" height="8730" viewBox="0 0 8094 8730" fill="none" xmlns="http://www.w3.org/2000/svg">
<path d="M43.3857 6779L41.3364 6782.44L43.3857 6779ZM115.013 6759.82L118.505 6761.77L115.013 6759.82ZM10.5763 6700.93L14.0682 6702.88L10.5763 6700.93ZM29.2239 6770.55L31.2731 6767.12L29.2239 6770.55ZM1437.97 4289.17L1435.92 4292.61L1437.97 4289.17ZM1456.62 4358.8L1453.12 4356.84L1456.62 4358.8ZM1423.81 4280.72L1421.76 4284.16L1423.81 4280.72ZM1352.18 4299.91L1348.69 4297.95L1352.18 4299.91ZM239.055 6895.72L241.104 6892.28L239.055 6895.72ZM220.407 6826.09L223.899 6828.04L220.407 6826.09ZM324.844 6884.98L328.336 6886.94L324.844 6884.98ZM253.217 6904.17L251.167 6907.6L253.217 6904.17ZM1633.64 4405.89L1631.59 4409.32L1633.64 4405.89ZM1562.01 4425.07L1565.5 4427.02L1562.01 4425.07ZM1647.8 4414.34L1645.75 4417.77L1647.8 4414.34ZM1666.45 4483.96L1662.96 4482.01L1666.45 4483.96ZM1917.69 7897.12L1915.64 7900.56L1917.69 7897.12ZM1899.04 7827.49L1895.55 7825.54L1899.04 7827.49ZM2110.3 7950.11L2113.79 7952.06L2110.3 7950.11ZM2038.67 7969.29L2040.72 7965.86L2038.67 7969.29ZM3312.27 5407.29L3314.32 5403.85L3312.27 5407.29ZM3240.64 5426.47L3244.14 5428.42L3240.64 5426.47ZM3433.26 5479.46L3431.21 5482.9L3433.26 5479.46ZM3451.9 5549.09L3448.41 5547.14L3451.9 5549.09ZM6082.1 3827.9L6085.59 3829.85L6082.1 3827.9ZM6063.45 3758.28L6065.5 3754.84L6063.45 3758.28ZM4682.08 6224.46L4680.03 6227.9L4682.08 6224.46ZM4753.71 6205.28L4757.2 6207.23L4753.71 6205.28ZM5874.66 3707.56L5878.15 3709.51L5874.66 3707.56ZM5946.28 3688.38L5944.23 3691.81L5946.28 3688.38ZM4546.26 6084.94L4549.76 6086.89L4546.26 6084.94ZM4564.91 6154.56L4566.96 6151.13L4564.91 6154.56ZM5534.54 3426.98L5532.49 3430.42L5534.54 3426.98ZM5515.89 3357.36L5519.38 3359.31L5515.89 3357.36ZM5933.15 3602.87L5929.66 3600.92L5933.15 3602.87ZM5861.53 3622.05L5863.58 3618.61L5861.53 3622.05ZM7338.35 1197.05L7340.4 1193.61L7338.35 1197.05ZM7266.72 1216.23L7263.23 1214.28L7266.72 1216.23ZM7477.98 1338.85L7481.47 1340.8L7477.98 1338.85ZM7459.33 1269.22L7457.28 1272.66L7459.33 1269.22ZM6160.2 3800.23L6162.25 3796.79L6160.2 3800.23ZM6141.55 3730.6L6145.05 3732.55L6141.55 3730.6ZM8083.38 5006.01L8079.89 5004.06L8083.38 5006.01ZM8064.73 4936.39L8062.68 4939.82L8064.73 4936.39ZM6670.15 7426.22L6668.1 7429.65L6670.15 7426.22ZM6741.78 7407.03L6745.27 7408.98L6741.78 7407.03ZM4699.03 6312.25L4695.53 6310.29L4699.03 6312.25ZM4770.65 6293.06L4772.7 6289.63L4770.65 6293.06ZM3293.83 8718.07L3295.88 8714.63L3293.83 8718.07ZM3365.46 8698.89L3368.95 8700.84L3365.46 8698.89ZM2944.37 8451.09L2940.88 8449.14L2944.37 8451.09ZM2963.02 8520.72L2965.07 8517.29L2963.02 8520.72ZM4262.15 5989.71L4264.2 5986.27L4262.15 5989.71ZM4280.8 6059.34L4284.29 6061.29L4280.8 6059.34ZM4073.35 5938.99L4076.84 5940.94L4073.35 5938.99ZM4144.98 5919.81L4142.93 5923.25L4144.98 5919.81ZM2668.16 8344.82L2666.11 8348.25L2668.16 8344.82ZM2739.79 8325.63L2743.28 8327.58L2739.79 8325.63ZM2318.7 8077.84L2315.21 8075.89L2318.7 8077.84ZM2337.35 8147.47L2335.3 8150.9L2337.35 8147.47ZM3731.93 5657.64L3733.98 5654.2L3731.93 5657.64ZM3660.3 5676.82L3663.79 5678.77L3660.3 5676.82ZM4128.04 5832.02L4124.55 5830.07L4124.55 5830.07L4128.04 5832.02ZM4056.41 5851.21L4054.36 5854.64L4056.41 5851.21ZM5437.78 3385.03L5439.82 3381.6L5437.78 3385.03ZM5456.42 3454.66L5459.91 3456.61L5456.42 3454.66ZM5299.45 3244.01L5302.94 3245.96L5299.45 3244.01ZM5318.1 3313.64L5320.14 3310.2L5318.1 3313.64ZM6833.66 895.982L6831.61 899.417L6833.66 895.982ZM6852.31 965.607L6855.8 967.559L6852.31 965.607ZM6712.68 823.808L6710.63 827.243L6712.68 823.808ZM6641.05 842.992L6637.56 841.04L6641.05 842.992ZM4795.43 3001.84L4793.38 3005.27L4795.43 3001.84ZM4776.78 2932.21L4780.27 2934.16L4776.78 2932.21ZM4881.22 2991.1L4884.71 2993.06L4881.22 2991.1ZM4809.59 3010.29L4811.64 3006.85L4809.59 3010.29ZM6190.01 512.009L6192.06 508.574L6190.01 512.009ZM6118.38 531.193L6121.87 533.144L6118.38 531.193ZM6204.17 520.458L6206.22 517.022L6204.17 520.458ZM6222.82 590.083L6226.31 592.034L6222.82 590.083ZM4389.93 2759.94L4391.98 2756.5L4389.93 2759.94ZM4461.56 2740.75L4458.07 2738.8L4461.56 2740.75ZM4357.12 2681.86L4353.63 2679.91L4357.12 2681.86ZM4375.77 2751.49L4373.72 2754.92L4375.77 2751.49ZM5784.52 270.105L5786.56 266.67L5784.52 270.105ZM5803.16 339.731L5806.65 341.682L5803.16 339.731ZM5770.35 261.657L5772.4 258.222L5770.35 261.657ZM5698.73 280.84L5702.22 282.791L5698.73 280.84ZM3956.11 2501.14L3958.16 2497.71L3956.11 2501.14ZM3937.46 2431.51L3933.97 2429.56L3937.46 2431.51ZM3991.44 2580.72L3994.93 2582.67L3991.44 2580.72ZM3972.79 2511.09L3970.74 2514.53L3972.79 2511.09ZM2591.42 4977.26L2589.37 4980.7L2591.42 4977.26ZM2663.05 4958.08L2659.56 4956.13L2663.05 4958.08ZM2451.79 4835.46L2455.28 4837.41L2451.79 4835.46ZM2470.44 4905.09L2472.49 4901.65L2470.44 4905.09ZM3769.57 2374.09L3767.52 2377.52L3769.57 2374.09ZM3788.22 2443.71L3791.71 2445.66L3788.22 2443.71ZM3679.96 2382.55L3676.47 2380.6L3679.96 2382.55ZM3751.59 2363.36L3753.64 2359.93L3751.59 2363.36ZM2274.77 4788.36L2272.72 4791.8L2274.77 4788.36ZM2346.4 4769.18L2349.89 4771.13L2346.4 4769.18ZM2241.96 4710.29L2245.45 4712.24L2241.96 4710.29ZM2260.61 4779.91L2262.66 4776.48L2260.61 4779.91ZM3559.74 2248.91L3561.79 2245.47L3559.74 2248.91ZM3578.39 2318.54L3574.89 2316.58L3578.39 2318.54ZM3470.13 2257.37L3473.63 2259.32L3470.13 2257.37ZM3541.76 2238.19L3543.81 2234.75L3541.76 2238.19ZM2064.94 4663.19L2066.99 4659.76L2064.94 4663.19ZM2136.57 4644.01L2133.08 4642.06L2136.57 4644.01ZM2032.13 4585.12L2035.62 4587.07L2032.13 4585.12ZM2050.78 4654.74L2052.83 4651.31L2050.78 4654.74ZM3349.91 2123.73L3347.86 2127.17L3349.91 2123.73ZM3368.56 2193.36L3365.06 2191.41L3368.56 2193.36ZM3260.3 2132.19L3263.8 2134.14L3260.3 2132.19ZM3331.93 2113.01L3333.98 2109.57L3331.93 2113.01ZM1855.11 4538.01L1853.06 4541.45L1855.11 4538.01ZM1926.74 4518.83L1923.25 4516.88L1926.74 4518.83ZM1771.84 4550.25L1768.35 4548.3L1771.84 4550.25ZM1843.47 4531.07L1841.42 4534.5L1843.47 4531.07ZM448.884 7020.9L446.834 7024.33L448.884 7020.9ZM430.236 6951.27L426.744 6949.32L430.236 6951.27ZM534.673 7010.16L531.181 7008.21L534.673 7010.16ZM463.045 7029.35L465.095 7025.91L463.045 7029.35ZM1939.87 4604.34L1937.82 4607.77L1939.87 4604.34ZM1868.24 4623.52L1864.75 4621.57L1868.24 4623.52ZM1976.49 4684.69L1973 4682.74L1976.49 4684.69ZM1957.84 4615.06L1959.89 4611.63L1959.89 4611.63L1957.84 4615.06ZM658.715 7146.08L656.665 7149.51L658.715 7146.08ZM640.067 7076.45L643.559 7078.4L640.067 7076.45ZM744.504 7135.34L747.996 7137.29L744.504 7135.34ZM672.877 7154.52L670.827 7157.96L672.877 7154.52ZM2149.7 4729.52L2147.65 4732.95L2149.7 4729.52ZM2078.07 4748.7L2081.56 4750.65L2078.07 4748.7ZM2186.32 4809.87L2189.81 4811.82L2186.32 4809.87ZM2167.67 4740.24L2169.72 4736.81L2169.72 4736.81L2167.67 4740.24ZM868.54 7271.24L870.59 7267.81L868.54 7271.24ZM849.893 7201.62L846.401 7199.67L849.893 7201.62ZM954.329 7260.51L950.837 7258.56L954.329 7260.51ZM882.702 7279.69L880.653 7283.13L882.702 7279.69ZM2359.53 4854.7L2361.58 4851.26L2359.53 4854.7ZM2287.9 4873.88L2284.41 4871.93L2287.9 4873.88ZM2396.15 4935.05L2392.66 4933.09L2396.15 4935.05ZM2377.5 4865.42L2375.45 4868.85L2377.5 4865.42ZM1078.37 7396.42L1080.42 7392.98L1078.37 7396.42ZM1059.72 7326.79L1063.22 7328.74L1059.72 7326.79ZM1270.98 7449.41L1267.49 7447.46L1270.98 7449.41ZM1199.36 7468.59L1197.31 7472.03L1199.36 7468.59ZM2676.18 5043.59L2674.13 5047.02L2676.18 5043.59ZM2604.55 5062.77L2601.06 5060.82L2604.55 5062.77ZM2815.81 5185.39L2812.32 5183.44L2815.81 5185.39ZM2797.16 5115.76L2799.21 5112.33L2797.16 5115.76ZM1498.03 7646.77L1495.98 7650.21L1498.03 7646.77ZM1479.38 7577.15L1475.89 7575.2L1479.38 7577.15ZM1690.64 7699.76L1694.14 7701.72L1690.64 7699.76ZM1619.02 7718.95L1616.97 7722.38L1619.02 7718.95ZM3013.6 5229.12L3011.55 5232.55L3013.6 5229.12ZM3032.25 5298.74L3028.75 5296.79L3032.25 5298.74ZM2871.45 5085.82L2874.94 5087.77L2871.45 5085.82ZM2890.1 5155.44L2888.05 5158.88L2890.1 5155.44ZM4189.23 2624.43L4191.28 2621L4189.23 2624.43ZM4207.87 2694.06L4211.37 2696.01L4211.37 2696.01L4207.87 2694.06ZM4047.08 2481.13L4043.59 2479.18L4047.08 2481.13ZM4065.72 2550.76L4063.68 2554.19L4065.72 2550.76ZM5350.69 11.3105L5352.74 7.87528L5350.69 11.3105ZM5279.07 30.494L5275.57 28.5429L5279.07 30.494ZM5364.85 19.7587L5366.9 16.3236L5364.85 19.7587ZM5383.5 89.3845L5386.99 91.3356L5383.5 89.3845ZM5366.9 16.3236L5352.74 7.87528L5348.64 14.7456L5362.81 23.1939L5366.9 16.3236ZM4050.57 2483.08L5386.99 91.3356L5380.01 87.4334L4043.59 2479.18L4050.57 2483.08ZM4063.68 2554.19L4187.18 2627.87L4191.28 2621L4067.77 2547.32L4063.68 2554.19ZM4204.38 2692.11L2867.96 5083.87L2874.94 5087.77L4211.37 2696.01L4204.38 2692.11ZM2888.05 5158.88L3011.55 5232.55L3015.65 5225.68L2892.15 5152.01L2888.05 5158.88ZM3028.75 5296.79L1687.15 7697.81L1694.14 7701.72L3035.74 5300.69L3028.75 5296.79ZM1621.07 7715.51L1500.08 7643.34L1495.98 7650.21L1616.97 7722.38L1621.07 7715.51ZM1482.88 7579.1L2819.3 5187.34L2812.32 5183.44L1475.89 7575.2L1482.88 7579.1ZM2799.21 5112.33L2678.23 5040.15L2674.13 5047.02L2795.11 5119.2L2799.21 5112.33ZM2601.06 5060.82L1267.49 7447.46L1274.48 7451.36L2608.04 5064.72L2601.06 5060.82ZM1201.41 7465.16L1080.42 7392.98L1076.32 7399.85L1197.31 7472.03L1201.41 7465.16ZM1063.22 7328.74L2399.64 4937L2392.66 4933.09L1056.23 7324.84L1063.22 7328.74ZM2379.55 4861.98L2361.58 4851.26L2357.48 4858.13L2375.45 4868.85L2379.55 4861.98ZM2284.41 4871.93L950.837 7258.56L957.821 7262.46L2291.39 4875.83L2284.41 4871.93ZM884.751 7276.26L870.59 7267.81L866.491 7274.68L880.653 7283.13L884.751 7276.26ZM853.385 7203.57L2189.81 4811.82L2182.83 4807.92L846.401 7199.67L853.385 7203.57ZM2169.72 4736.81L2151.75 4726.08L2147.65 4732.95L2165.62 4743.68L2169.72 4736.81ZM2074.58 4746.75L741.012 7133.39L747.996 7137.29L2081.56 4750.65L2074.58 4746.75ZM674.926 7151.09L660.764 7142.64L656.665 7149.51L670.827 7157.96L674.926 7151.09ZM643.559 7078.4L1979.98 4686.64L1973 4682.74L636.575 7074.5L643.559 7078.4ZM1959.89 4611.63L1941.92 4600.9L1937.82 4607.77L1955.79 4618.5L1959.89 4611.63ZM1864.75 4621.57L531.181 7008.21L538.164 7012.11L1871.73 4625.47L1864.75 4621.57ZM465.095 7025.91L450.933 7017.46L446.834 7024.33L460.996 7032.78L465.095 7025.91ZM433.728 6953.22L1775.33 4552.2L1768.35 4548.3L426.744 6949.32L433.728 6953.22ZM1841.42 4534.5L1853.06 4541.45L1857.16 4534.58L1845.52 4527.63L1841.42 4534.5ZM1930.23 4520.78L3263.8 2134.14L3256.81 2130.24L1923.25 4516.88L1930.23 4520.78ZM3329.88 2116.44L3347.86 2127.17L3351.96 2120.3L3333.98 2109.57L3329.88 2116.44ZM3365.06 2191.41L2028.64 4583.17L2035.62 4587.07L3372.05 2195.31L3365.06 2191.41ZM2048.73 4658.18L2062.89 4666.63L2066.99 4659.76L2052.83 4651.31L2048.73 4658.18ZM2140.06 4645.96L3473.63 2259.32L3466.64 2255.42L2133.08 4642.06L2140.06 4645.96ZM3539.71 2241.62L3557.69 2252.34L3561.79 2245.47L3543.81 2234.75L3539.71 2241.62ZM3574.89 2316.58L2238.47 4708.34L2245.45 4712.24L3581.88 2320.49L3574.89 2316.58ZM2258.56 4783.35L2272.72 4791.8L2276.82 4784.93L2262.66 4776.48L2258.56 4783.35ZM2349.89 4771.13L3683.46 2384.5L3676.47 2380.6L2342.9 4767.23L2349.89 4771.13ZM3749.54 2366.8L3767.52 2377.52L3771.62 2370.65L3753.64 2359.93L3749.54 2366.8ZM3784.72 2441.76L2448.3 4833.51L2455.28 4837.41L3791.71 2445.66L3784.72 2441.76ZM2468.39 4908.52L2589.37 4980.7L2593.47 4973.82L2472.49 4901.65L2468.39 4908.52ZM2666.54 4960.03L3994.93 2582.67L3987.94 2578.77L2659.56 4956.13L2666.54 4960.03ZM3954.06 2504.58L3970.74 2514.53L3974.84 2507.66L3958.16 2497.71L3954.06 2504.58ZM5275.57 28.5429L3933.97 2429.56L3940.95 2433.47L5282.56 32.4451L5275.57 28.5429ZM5768.3 265.092L5782.47 273.54L5786.56 266.67L5772.4 258.222L5768.3 265.092ZM4360.61 2683.81L5702.22 282.791L5695.23 278.889L4353.63 2679.91L4360.61 2683.81ZM4391.98 2756.5L4377.82 2748.05L4373.72 2754.92L4387.88 2763.37L4391.98 2756.5ZM5799.67 337.78L4458.07 2738.8L4465.05 2742.7L5806.65 341.682L5799.67 337.78ZM6206.22 517.022L6192.06 508.574L6187.96 515.444L6202.12 523.893L6206.22 517.022ZM4884.71 2993.06L6226.31 592.034L6219.33 588.132L4877.72 2989.15L4884.71 2993.06ZM4793.38 3005.27L4807.54 3013.72L4811.64 3006.85L4797.48 2998.4L4793.38 3005.27ZM6114.89 529.242L4773.29 2930.26L4780.27 2934.16L6121.87 533.144L6114.89 529.242ZM6710.63 827.243L6831.61 899.417L6835.71 892.546L6714.73 820.373L6710.63 827.243ZM5302.94 3245.96L6644.54 844.943L6637.56 841.04L5295.96 3242.06L5302.94 3245.96ZM5439.82 3381.6L5320.14 3310.2L5316.05 3317.07L5435.73 3388.47L5439.82 3381.6ZM4131.53 5833.98L5459.91 3456.61L5452.93 3452.71L4124.55 5830.07L4131.53 5833.98ZM3729.88 5661.07L4054.36 5854.64L4058.46 5847.77L3733.98 5654.2L3729.88 5661.07ZM2322.19 8079.79L3663.79 5678.77L3656.81 5674.87L2315.21 8075.89L2322.19 8079.79ZM2670.21 8341.38L2339.4 8144.03L2335.3 8150.9L2666.11 8348.25L2670.21 8341.38ZM4069.86 5937.04L2736.29 8323.68L2743.28 8327.58L4076.84 5940.94L4069.86 5937.04ZM4264.2 5986.27L4147.03 5916.37L4142.93 5923.25L4260.1 5993.14L4264.2 5986.27ZM2947.86 8453.05L4284.29 6061.29L4277.31 6057.38L2940.88 8449.14L2947.86 8453.05ZM3295.88 8714.63L2965.07 8517.29L2960.97 8524.16L3291.78 8721.5L3295.88 8714.63ZM4695.53 6310.29L3361.97 8696.93L3368.95 8700.84L4702.52 6314.2L4695.53 6310.29ZM6672.2 7422.78L4772.7 6289.63L4768.6 6296.5L6668.1 7429.65L6672.2 7422.78ZM8079.89 5004.06L6738.28 7405.08L6745.27 7408.98L8086.87 5007.96L8079.89 5004.06ZM6158.15 3803.66L8062.68 4939.82L8066.78 4932.95L6162.25 3796.79L6158.15 3803.66ZM7474.49 1336.89L6138.06 3728.65L6145.05 3732.55L7481.47 1340.8L7474.49 1336.89ZM7336.3 1200.48L7457.28 1272.66L7461.38 1265.79L7340.4 1193.61L7336.3 1200.48ZM5936.65 3604.82L7270.21 1218.18L7263.23 1214.28L5929.66 3600.92L5936.65 3604.82ZM5532.49 3430.42L5859.48 3625.48L5863.58 3618.61L5536.58 3423.55L5532.49 3430.42ZM6848.82 963.656L5512.4 3355.4L5519.38 3359.31L6855.8 967.559L6848.82 963.656ZM4549.76 6086.89L5878.15 3709.51L5871.17 3705.61L4542.77 6082.99L4549.76 6086.89ZM4684.13 6221.03L4566.96 6151.13L4562.86 6158L4680.03 6227.9L4684.13 6221.03ZM6078.61 3825.95L4750.22 6203.33L4757.2 6207.23L6085.59 3829.85L6078.61 3825.95ZM5944.23 3691.81L6061.4 3761.71L6065.5 3754.84L5948.33 3684.94L5944.23 3691.81ZM3435.3 5476.03L3314.32 5403.85L3310.22 5410.73L3431.21 5482.9L3435.3 5476.03ZM2113.79 7952.06L3455.39 5551.04L3448.41 5547.14L2106.81 7948.16L2113.79 7952.06ZM1915.64 7900.56L2036.62 7972.73L2040.72 7965.86L1919.74 7893.69L1915.64 7900.56ZM3237.15 5424.52L1895.55 7825.54L1902.53 7829.45L3244.14 5428.42L3237.15 5424.52ZM1649.85 4410.9L1635.69 4402.45L1631.59 4409.32L1645.75 4417.77L1649.85 4410.9ZM328.336 6886.94L1669.94 4485.91L1662.96 4482.01L321.352 6883.03L328.336 6886.94ZM237.006 6899.15L251.167 6907.6L255.266 6900.73L241.104 6892.28L237.006 6899.15ZM1558.52 4423.12L216.916 6824.14L223.899 6828.04L1565.5 4427.02L1558.52 4423.12ZM1421.76 4284.16L1435.92 4292.61L1440.02 4285.74L1425.86 4277.29L1421.76 4284.16ZM14.0682 6702.88L1355.67 4301.86L1348.69 4297.95L7.08447 6698.97L14.0682 6702.88ZM45.4349 6775.57L31.2731 6767.12L27.1746 6773.99L41.3364 6782.44L45.4349 6775.57ZM1453.12 4356.84L111.521 6757.87L118.505 6761.77L1460.11 4360.75L1453.12 4356.84ZM41.3364 6782.44C68.2886 6798.51 103.196 6789.16 118.505 6761.77L111.521 6757.87C98.4111 6781.33 68.5165 6789.33 45.4349 6775.57L41.3364 6782.44ZM7.08447 6698.97C-7.62253 6725.3 1.28122 6758.54 27.1746 6773.99L31.2731 6767.12C9.09836 6753.89 1.47329 6725.42 14.0682 6702.88L7.08447 6698.97ZM1435.92 4292.61C1458.09 4305.83 1465.72 4334.3 1453.12 4356.84L1460.11 4360.75C1474.82 4334.43 1465.91 4301.18 1440.02 4285.74L1435.92 4292.61ZM1425.86 4277.29C1398.9 4261.21 1364 4270.56 1348.69 4297.95L1355.67 4301.86C1368.78 4278.39 1398.68 4270.39 1421.76 4284.16L1425.86 4277.29ZM241.104 6892.28C218.929 6879.06 211.304 6850.59 223.899 6828.04L216.916 6824.14C202.209 6850.46 211.112 6883.71 237.006 6899.15L241.104 6892.28ZM321.352 6883.03C308.242 6906.5 278.348 6914.5 255.266 6900.73L251.167 6907.6C278.12 6923.68 313.027 6914.33 328.336 6886.94L321.352 6883.03ZM1635.69 4402.45C1608.73 4386.38 1573.83 4395.72 1558.52 4423.12L1565.5 4427.02C1578.61 4403.56 1608.51 4395.56 1631.59 4409.32L1635.69 4402.45ZM1645.75 4417.77C1667.93 4431 1675.55 4459.47 1662.96 4482.01L1669.94 4485.91C1684.65 4459.59 1675.74 4426.35 1649.85 4410.9L1645.75 4417.77ZM1919.74 7893.69C1897.56 7880.46 1889.94 7851.99 1902.53 7829.45L1895.55 7825.54C1880.84 7851.86 1889.75 7885.11 1915.64 7900.56L1919.74 7893.69ZM2106.81 7948.16C2093.7 7971.62 2063.8 7979.63 2040.72 7965.86L2036.62 7972.73C2063.58 7988.81 2098.48 7979.46 2113.79 7952.06L2106.81 7948.16ZM3314.32 5403.85C3287.37 5387.78 3252.46 5397.13 3237.15 5424.52L3244.14 5428.42C3257.25 5404.96 3287.14 5396.96 3310.22 5410.73L3314.32 5403.85ZM3431.21 5482.9C3453.38 5496.13 3461.01 5524.6 3448.41 5547.14L3455.39 5551.04C3470.1 5524.72 3461.2 5491.48 3435.3 5476.03L3431.21 5482.9ZM6085.59 3829.85C6100.3 3803.53 6091.4 3770.29 6065.5 3754.84L6061.4 3761.71C6083.58 3774.94 6091.2 3803.41 6078.61 3825.95L6085.59 3829.85ZM4680.03 6227.9C4706.98 6243.97 4741.89 6234.63 4757.2 6207.23L4750.22 6203.33C4737.11 6226.79 4707.21 6234.79 4684.13 6221.03L4680.03 6227.9ZM5878.15 3709.51C5891.26 3686.05 5921.15 3678.04 5944.23 3691.81L5948.33 3684.94C5921.38 3668.86 5886.47 3678.21 5871.17 3705.61L5878.15 3709.51ZM4542.77 6082.99C4528.07 6109.31 4536.97 6142.55 4562.86 6158L4566.96 6151.13C4544.79 6137.9 4537.16 6109.43 4549.76 6086.89L4542.77 6082.99ZM5536.58 3423.55C5514.41 3410.32 5506.78 3381.85 5519.38 3359.31L5512.4 3355.4C5497.69 3381.72 5506.59 3414.97 5532.49 3430.42L5536.58 3423.55ZM5929.66 3600.92C5916.55 3624.38 5886.66 3632.38 5863.58 3618.61L5859.48 3625.48C5886.43 3641.56 5921.34 3632.21 5936.65 3604.82L5929.66 3600.92ZM7340.4 1193.61C7313.45 1177.53 7278.54 1186.88 7263.23 1214.28L7270.21 1218.18C7283.32 1194.72 7313.22 1186.71 7336.3 1200.48L7340.4 1193.61ZM7481.47 1340.8C7496.18 1314.48 7487.28 1281.23 7461.38 1265.79L7457.28 1272.66C7479.46 1285.88 7487.08 1314.35 7474.49 1336.89L7481.47 1340.8ZM6162.25 3796.79C6140.08 3783.57 6132.45 3755.1 6145.05 3732.55L6138.06 3728.65C6123.36 3754.97 6132.26 3788.22 6158.15 3803.66L6162.25 3796.79ZM8086.87 5007.96C8101.58 4981.64 8092.67 4948.4 8066.78 4932.95L8062.68 4939.82C8084.86 4953.05 8092.48 4981.52 8079.89 5004.06L8086.87 5007.96ZM6668.1 7429.65C6695.05 7445.73 6729.96 7436.38 6745.27 7408.98L6738.28 7405.08C6725.17 7428.54 6695.28 7436.55 6672.2 7422.78L6668.1 7429.65ZM4702.52 6314.2C4715.63 6290.73 4745.52 6282.73 4768.6 6296.5L4772.7 6289.63C4745.75 6273.55 4710.84 6282.9 4695.53 6310.29L4702.52 6314.2ZM3291.78 8721.5C3318.73 8737.58 3353.64 8728.23 3368.95 8700.84L3361.97 8696.93C3348.86 8720.4 3318.96 8728.4 3295.88 8714.63L3291.78 8721.5ZM2940.88 8449.14C2926.17 8475.46 2935.08 8508.71 2960.97 8524.16L2965.07 8517.29C2942.89 8504.06 2935.27 8475.59 2947.86 8453.05L2940.88 8449.14ZM4260.1 5993.14C4282.28 6006.37 4289.9 6034.84 4277.31 6057.38L4284.29 6061.29C4299 6034.97 4290.09 6001.72 4264.2 5986.27L4260.1 5993.14ZM4076.84 5940.94C4089.95 5917.48 4119.85 5909.48 4142.93 5923.25L4147.03 5916.37C4120.08 5900.3 4085.17 5909.65 4069.86 5937.04L4076.84 5940.94ZM2666.11 8348.25C2693.06 8364.33 2727.97 8354.98 2743.28 8327.58L2736.29 8323.68C2723.18 8347.14 2693.29 8355.15 2670.21 8341.38L2666.11 8348.25ZM2315.21 8075.89C2300.5 8102.21 2309.4 8135.45 2335.3 8150.9L2339.4 8144.03C2317.22 8130.8 2309.6 8102.33 2322.19 8079.79L2315.21 8075.89ZM3733.98 5654.2C3707.03 5638.12 3672.12 5647.47 3656.81 5674.87L3663.79 5678.77C3676.9 5655.31 3706.8 5647.3 3729.88 5661.07L3733.98 5654.2ZM4124.55 5830.07C4111.44 5853.54 4081.54 5861.54 4058.46 5847.77L4054.36 5854.64C4081.31 5870.72 4116.22 5861.37 4131.53 5833.98L4124.55 5830.07ZM5435.73 3388.47C5457.9 3401.7 5465.53 3430.17 5452.93 3452.71L5459.91 3456.61C5474.62 3430.29 5465.72 3397.05 5439.82 3381.6L5435.73 3388.47ZM5295.96 3242.06C5281.25 3268.38 5290.15 3301.63 5316.05 3317.07L5320.14 3310.2C5297.97 3296.97 5290.34 3268.5 5302.94 3245.96L5295.96 3242.06ZM6831.61 899.417C6853.79 912.645 6861.41 941.116 6848.82 963.656L6855.8 967.559C6870.51 941.238 6861.6 907.993 6835.71 892.546L6831.61 899.417ZM6714.73 820.373C6687.78 804.294 6652.87 813.644 6637.56 841.04L6644.54 844.943C6657.65 821.48 6687.55 813.474 6710.63 827.243L6714.73 820.373ZM4797.48 2998.4C4775.3 2985.18 4767.68 2956.71 4780.27 2934.16L4773.29 2930.26C4758.58 2956.58 4767.48 2989.83 4793.38 3005.27L4797.48 2998.4ZM4877.72 2989.15C4864.61 3012.62 4834.72 3020.62 4811.64 3006.85L4807.54 3013.72C4834.49 3029.8 4869.4 3020.45 4884.71 2993.06L4877.72 2989.15ZM6192.06 508.574C6165.11 492.496 6130.2 501.845 6114.89 529.242L6121.87 533.144C6134.98 509.682 6164.88 501.675 6187.96 515.444L6192.06 508.574ZM6202.12 523.893C6224.3 537.121 6231.92 565.592 6219.33 588.132L6226.31 592.034C6241.02 565.714 6232.11 532.469 6206.22 517.022L6202.12 523.893ZM4387.88 2763.37C4414.84 2779.45 4449.74 2770.1 4465.05 2742.7L4458.07 2738.8C4444.96 2762.26 4415.06 2770.27 4391.98 2756.5L4387.88 2763.37ZM4353.63 2679.91C4338.92 2706.23 4347.83 2739.48 4373.72 2754.92L4377.82 2748.05C4355.64 2734.82 4348.02 2706.35 4360.61 2683.81L4353.63 2679.91ZM5782.47 273.54C5804.64 286.769 5812.27 315.239 5799.67 337.78L5806.65 341.682C5821.36 315.361 5812.46 282.117 5786.56 266.67L5782.47 273.54ZM5772.4 258.222C5745.45 242.143 5710.54 251.492 5695.23 278.889L5702.22 282.791C5715.33 259.329 5745.22 251.323 5768.3 265.092L5772.4 258.222ZM3958.16 2497.71C3935.98 2484.48 3928.36 2456.01 3940.95 2433.47L3933.97 2429.56C3919.26 2455.88 3928.17 2489.13 3954.06 2504.58L3958.16 2497.71ZM3994.93 2582.67C4009.64 2556.35 4000.73 2523.1 3974.84 2507.66L3970.74 2514.53C3992.91 2527.75 4000.54 2556.22 3987.94 2578.77L3994.93 2582.67ZM2589.37 4980.7C2616.32 4996.77 2651.23 4987.42 2666.54 4960.03L2659.56 4956.13C2646.45 4979.59 2616.55 4987.59 2593.47 4973.82L2589.37 4980.7ZM2448.3 4833.51C2433.59 4859.83 2442.5 4893.07 2468.39 4908.52L2472.49 4901.65C2450.31 4888.42 2442.69 4859.95 2455.28 4837.41L2448.3 4833.51ZM3767.52 2377.52C3789.69 2390.75 3797.32 2419.22 3784.72 2441.76L3791.71 2445.66C3806.42 2419.34 3797.51 2386.1 3771.62 2370.65L3767.52 2377.52ZM3683.46 2384.5C3696.57 2361.04 3726.46 2353.03 3749.54 2366.8L3753.64 2359.93C3726.69 2343.85 3691.78 2353.2 3676.47 2380.6L3683.46 2384.5ZM2272.72 4791.8C2299.67 4807.87 2334.58 4798.53 2349.89 4771.13L2342.9 4767.23C2329.79 4790.69 2299.9 4798.69 2276.82 4784.93L2272.72 4791.8ZM2238.47 4708.34C2223.76 4734.66 2232.66 4767.9 2258.56 4783.35L2262.66 4776.48C2240.48 4763.25 2232.86 4734.78 2245.45 4712.24L2238.47 4708.34ZM3557.69 2252.34C3579.86 2265.57 3587.49 2294.04 3574.89 2316.58L3581.88 2320.49C3596.58 2294.17 3587.68 2260.92 3561.79 2245.47L3557.69 2252.34ZM3473.63 2259.32C3486.74 2235.86 3516.63 2227.85 3539.71 2241.62L3543.81 2234.75C3516.86 2218.67 3481.95 2228.02 3466.64 2255.42L3473.63 2259.32ZM2062.89 4666.63C2089.85 4682.71 2124.75 4673.36 2140.06 4645.96L2133.08 4642.06C2119.97 4665.52 2090.07 4673.53 2066.99 4659.76L2062.89 4666.63ZM2028.64 4583.17C2013.93 4609.49 2022.84 4642.73 2048.73 4658.18L2052.83 4651.31C2030.66 4638.08 2023.03 4609.61 2035.62 4587.07L2028.64 4583.17ZM3347.86 2127.17C3370.03 2140.4 3377.66 2168.87 3365.06 2191.41L3372.05 2195.31C3386.76 2168.99 3377.85 2135.74 3351.96 2120.3L3347.86 2127.17ZM3263.8 2134.14C3276.91 2110.68 3306.8 2102.67 3329.88 2116.44L3333.98 2109.57C3307.03 2093.49 3272.12 2102.84 3256.81 2130.24L3263.8 2134.14ZM1853.06 4541.45C1880.01 4557.53 1914.92 4548.18 1930.23 4520.78L1923.25 4516.88C1910.14 4540.34 1880.24 4548.35 1857.16 4534.58L1853.06 4541.45ZM1775.33 4552.2C1788.44 4528.74 1818.34 4520.73 1841.42 4534.5L1845.52 4527.63C1818.56 4511.55 1783.66 4520.9 1768.35 4548.3L1775.33 4552.2ZM450.933 7017.46C428.758 7004.23 421.133 6975.76 433.728 6953.22L426.744 6949.32C412.037 6975.64 420.941 7008.89 446.834 7024.33L450.933 7017.46ZM531.181 7008.21C518.071 7031.67 488.176 7039.68 465.095 7025.91L460.996 7032.78C487.948 7048.86 522.856 7039.51 538.164 7012.11L531.181 7008.21ZM1941.92 4600.9C1914.96 4584.83 1880.06 4594.17 1864.75 4621.57L1871.73 4625.47C1884.84 4602.01 1914.74 4594.01 1937.82 4607.77L1941.92 4600.9ZM1979.98 4686.64C1994.69 4660.32 1985.79 4627.08 1959.89 4611.63L1955.79 4618.5C1977.97 4631.73 1985.59 4660.2 1973 4682.74L1979.98 4686.64ZM660.764 7142.64C638.589 7129.41 630.964 7100.94 643.559 7078.4L636.575 7074.5C621.868 7100.82 630.772 7134.06 656.665 7149.51L660.764 7142.64ZM741.012 7133.39C727.902 7156.85 698.007 7164.86 674.926 7151.09L670.827 7157.96C697.78 7174.04 732.687 7164.69 747.996 7137.29L741.012 7133.39ZM2151.75 4726.08C2124.79 4710 2089.89 4719.35 2074.58 4746.75L2081.56 4750.65C2094.67 4727.19 2124.57 4719.18 2147.65 4732.95L2151.75 4726.08ZM2189.81 4811.82C2204.52 4785.5 2195.62 4752.25 2169.72 4736.81L2165.62 4743.68C2187.8 4756.91 2195.42 4785.38 2182.83 4807.92L2189.81 4811.82ZM870.59 7267.81C848.415 7254.58 840.79 7226.11 853.385 7203.57L846.401 7199.67C831.694 7225.99 840.598 7259.23 866.491 7274.68L870.59 7267.81ZM950.837 7258.56C937.727 7282.02 907.833 7290.03 884.751 7276.26L880.653 7283.13C907.605 7299.21 942.513 7289.86 957.821 7262.46L950.837 7258.56ZM2361.58 4851.26C2334.62 4835.18 2299.72 4844.53 2284.41 4871.93L2291.39 4875.83C2304.5 4852.37 2334.4 4844.36 2357.48 4858.13L2361.58 4851.26ZM2399.64 4937C2414.35 4910.68 2405.45 4877.43 2379.55 4861.98L2375.45 4868.85C2397.63 4882.08 2405.25 4910.55 2392.66 4933.09L2399.64 4937ZM1080.42 7392.98C1058.25 7379.75 1050.62 7351.28 1063.22 7328.74L1056.23 7324.84C1041.53 7351.16 1050.43 7384.41 1076.32 7399.85L1080.42 7392.98ZM1267.49 7447.46C1254.38 7470.92 1224.49 7478.93 1201.41 7465.16L1197.31 7472.03C1224.26 7488.11 1259.17 7478.76 1274.48 7451.36L1267.49 7447.46ZM2678.23 5040.15C2651.27 5024.08 2616.37 5033.42 2601.06 5060.82L2608.04 5064.72C2621.15 5041.26 2651.05 5033.25 2674.13 5047.02L2678.23 5040.15ZM2819.3 5187.34C2834.01 5161.02 2825.1 5127.77 2799.21 5112.33L2795.11 5119.2C2817.29 5132.43 2824.91 5160.9 2812.32 5183.44L2819.3 5187.34ZM1500.08 7643.34C1477.91 7630.11 1470.28 7601.64 1482.88 7579.1L1475.89 7575.2C1461.19 7601.52 1470.09 7634.76 1495.98 7650.21L1500.08 7643.34ZM1687.15 7697.81C1674.04 7721.28 1644.15 7729.28 1621.07 7715.51L1616.97 7722.38C1643.92 7738.46 1678.83 7729.11 1694.14 7701.72L1687.15 7697.81ZM3011.55 5232.55C3033.72 5245.78 3041.35 5274.25 3028.75 5296.79L3035.74 5300.69C3050.45 5274.37 3041.54 5241.13 3015.65 5225.68L3011.55 5232.55ZM2867.96 5083.87C2853.25 5110.19 2862.16 5143.43 2888.05 5158.88L2892.15 5152.01C2869.97 5138.78 2862.35 5110.31 2874.94 5087.77L2867.96 5083.87ZM4187.18 2627.87C4209.35 2641.09 4216.98 2669.56 4204.38 2692.11L4211.37 2696.01C4226.07 2669.69 4217.17 2636.44 4191.28 2621L4187.18 2627.87ZM4043.59 2479.18C4028.88 2505.5 4037.78 2538.74 4063.68 2554.19L4067.77 2547.32C4045.6 2534.09 4037.97 2505.62 4050.57 2483.08L4043.59 2479.18ZM5352.74 7.87528C5325.79 -8.20317 5290.88 1.14598 5275.57 28.5429L5282.56 32.4451C5295.67 8.98275 5325.56 0.976241 5348.64 14.7456L5352.74 7.87528ZM5362.81 23.1939C5384.98 36.4224 5392.61 64.8927 5380.01 87.4334L5386.99 91.3356C5401.7 65.015 5392.8 31.7704 5366.9 16.3236L5362.81 23.1939Z" fill="url(#paint0_linear_2057_84)"/>
<defs>
<linearGradient id="paint0_linear_2057_84" x1="4046.98" y1="2657.18" x2="4046.98" y2="4715.77" gradientUnits="userSpaceOnUse">
<stop stop-color="#3734EE"/>
<stop offset="1" stop-color="#02020F"/>
</linearGradient>
</defs>
</svg>
