<svg xmlns="http://www.w3.org/2000/svg" width="23" height="32" viewBox="0 0 23 32" fill="none">
												<path fill-rule="evenodd" clip-rule="evenodd" d="M9.44921 0.0230548L9.4501 0.0461095L10.0992 2.46455L10.7483 4.88309L10.4534 7.49049L10.1586 10.098L9.87029 10.6729L9.58211 11.2477L9.24607 11.3876L8.91002 11.5274L8.80039 11.5246L8.69075 11.5218L7.92472 10.1183L7.15859 8.7147L6.90188 5.51009L6.64508 2.30548H6.58964H6.53428L5.33951 5.87896L4.14482 9.45245L4.10025 11.8871L4.05568 14.3217L3.5288 13.3165L3.00201 12.3112L2.55455 11.4851L2.10699 10.6591L2.0405 10.8857L1.974 11.1124L1.37563 13.464L0.777265 15.8156L0.388633 17.0902L0 18.365V19.0418V19.7186L0.133526 20.4415L0.267051 21.1643L0.593288 22.2461L0.919526 23.328L0.660319 23.9521L0.401112 24.5764V24.6392V24.7019L4.32309 28.3493L8.24507 31.9967L11.4616 31.9983L14.6782 32L18.4142 28.5339L22.1503 25.0677L22.369 24.8472L22.5878 24.6267L22.2987 24.0021L22.0095 23.3775L22.5048 21.091L23 18.8043L22.1037 14.8662L21.2073 10.928L21.1607 10.7903L21.1142 10.6525L20.9637 10.85L20.8132 11.0476L19.7067 12.5327L18.6002 14.0178L18.5773 13.9941L18.5543 13.9704L18.7841 13.2792L19.0137 12.5879L18.2393 8.94995L17.4648 5.31191L17.4454 5.29208L17.4261 5.27225L13.4715 2.63608L9.51695 0H9.48263H9.4484L9.44921 0.0230548ZM9.05603 16.3228L11.3227 17.245H11.4721H11.6215L13.8917 16.319L16.1619 15.393L16.2314 15.466L16.3007 15.5389L17.0064 17.245L17.7121 18.951L17.7714 19.1448L17.8307 19.3384L16.4696 19.875L15.1085 20.4117L15.0479 20.4652L14.9873 20.5187L16.3181 22.3614L17.6489 24.2039L17.6485 24.298L17.648 24.3919L17.4479 24.6505L17.2478 24.9091L14.3671 25.7718L11.4863 26.6346L8.62336 25.7669L5.76041 24.8991H5.74311H5.72582L5.4897 24.5788L5.25349 24.2584L6.59267 22.3925L7.93194 20.5268L7.86562 20.4641L7.79939 20.4016L6.46458 19.8785L5.12986 19.3553L5.10731 19.332L5.08476 19.3086L5.80373 17.5621L6.5227 15.8156L6.60176 15.6081L6.68074 15.4006H6.73511H6.78948L9.05603 16.3228ZM7.04174 18.2535L8.71107 18.8097L10.4735 19.4121L10.7036 18.8445L9.0604 18.0908L7.41726 17.3372H7.37163H7.3259L7.04174 18.2535ZM13.8303 18.0739L12.1463 18.8445L12.3453 19.4121L14.1029 18.8523L15.8216 18.2624L15.6032 17.3372L15.5342 17.3433L15.4651 17.3493L13.8303 18.0739ZM9.69166 21.1117L9.64664 21.2896L9.94864 21.7535L10.2506 22.2175V22.4041V22.5905L10.6998 22.826L11.149 23.0616L11.1232 22.2583L11.0974 21.4549L10.4822 21.1943L9.86699 20.9337H9.80183H9.73658L9.69166 21.1117ZM12.3899 21.213L11.8105 21.4738L11.7848 22.2606L11.7591 23.0475L12.2305 22.8329L12.7019 22.6183L12.7316 22.3584L12.7614 22.0985L13.055 21.7237L13.3486 21.3487L13.2567 21.1412L13.1648 20.9337L13.0671 20.943L12.9693 20.9523L12.3899 21.213ZM9.20177 27.0661L11.4956 27.7908L14.0021 27.0309L16.5087 26.2709L16.5349 26.2997L16.5611 26.3285L15.612 27.4509L14.6629 28.5733L11.4871 28.5806L8.31148 28.5879L7.56015 27.5504L6.80891 26.513L6.73243 26.382L6.65596 26.2511L6.78199 26.2962L6.90803 26.3413L9.20177 27.0661Z" fill="white"></path>
											</svg>